<?xml version="1.0" encoding="utf-8"?>
<!-- Generator: Adobe Illustrator 16.0.4, SVG Export Plug-In . SVG Version: 6.00 Build 0)  -->
<!DOCTYPE svg PUBLIC "-//W3C//DTD SVG 1.1//EN" "http://www.w3.org/Graphics/SVG/1.1/DTD/svg11.dtd">
<svg version="1.1" id="Layer_1" xmlns="http://www.w3.org/2000/svg" xmlns:xlink="http://www.w3.org/1999/xlink" x="0px" y="0px"
	 width="364px" height="169.333px" viewBox="0 0 364 169.333" enable-background="new 0 0 364 169.333" xml:space="preserve">
<path fill="#231F20" d="M101.828,36.678v-4.739C101.768,33.277,101.828,34.856,101.828,36.678z"/>
<path fill="#152C46" d="M220.657,60.677c-17.06-29.235-56.097-19.479-81.869-10.121c-8.38,3.043-16.907,3.621-25.631,5.496
	c0,0,0-17.99,0-21.724v-2.218c-0.073-2.862-0.759-5.244-5.797-5.244c-4.482,0-5.383,1.782-5.532,5.074v4.739
	c0,4.287,0,21.199,0,21.199c-0.727,0.077-1.449,0.178-2.179,0.238c-6.243,0.512-13.922,0.791-19.833-1.463
	c-5.857-2.234-10.903-6.062-16.103-9.47c-5.863-3.843-12.741-5.634-19.72-5.634c-5.813,0-11.672,1.556-17.584,4.677
	C15.682,53.09,10.327,60.216,10.327,67.616c0,5.279,2.426,9.765,7.286,13.465c1.203,0.916,2.941,1.294,4.356,1.732
	c3.465,1.071,6.986,1.969,10.503,2.853c5.532,1.391,11.087,2.693,16.646,3.97c1.849,0.425,3.698,0.846,5.548,1.264
	c1.28,0.289,2.58,0.477,3.859,0.769c1.096,0.25,2.276,0.432,3.322,0.849c1.642,0.654,2.669,1.981,2.669,3.775v0.313
	c-0.272,0.852-0.542,1.745-1.027,2.504c-0.556,0.869-1.291,1.602-1.966,2.375c-0.999,1.143-2.077,2.217-3.241,3.19
	c-4.19,3.506-9.379,5.403-14.844,5.403c-5.601,0-10.643-1.653-15.155-4.889l-7.499,9.314c6.336,5.046,13.483,7.613,21.471,7.613
	c5.806,0,11.275-1.16,16.395-3.486c11.939-6.759,17.905-14.205,17.905-22.338v-0.236c0-1.766-0.279-3.531-0.877-5.195
	c-0.951-2.647-2.678-4.927-4.776-6.775c-2.458-2.167-5.319-2.911-8.427-3.727c-4.088-1.073-8.191-2.094-12.294-3.11
	c-7.159-1.772-14.3-3.714-21.563-4.968c-1.182-0.204-2.371-0.481-3.473-0.963c-1.551-0.677-3.054-1.922-2.771-3.772
	c0.295-1.934,1.729-3.491,2.913-4.954c1.231-1.522,2.61-2.928,4.143-4.149c4.155-3.31,9.276-4.933,14.566-4.933
	c6.956,0,12.903,3.616,18.646,7.12c6.122,3.734,10.665,6.928,17.908,8.417c7.028,1.446,14.18,1.605,21.282,0.928v28.294
	c0,3.326,0.389,6.233,1.183,8.72c2.591,5.816,5.977,9.945,10.146,12.408c3.061,1.807,6.541,2.721,10.452,2.721h6.103
	c0.503,0,1.009-0.05,1.498-0.17c1.739-0.429,2.91-1.757,3.527-3.392c0.396-1.05,0.603-1.967,0.362-3.082
	c-0.24-1.116-0.743-2.205-1.456-3.097c-0.818-1.024-1.988-1.588-3.299-1.588c-2.047,0-4.092-0.107-6.134-0.255
	c-1.78-0.128-3.641,0.014-5.261-0.885c-1.013-0.562-1.927-1.33-2.682-2.207c-2.548-2.956-3.111-7.148-3.111-10.912V68.235
	c3.441-0.713,6.849-1.569,10.2-2.521c11.591-3.294,22.569-6.297,34.298-9.129c10.735-2.592,22.101-5.371,33.206-3.811
	c11.001,1.546,22.114,10.679,22.114,22.719l-18.125,2.398l0.952,11.752l23.673-2.585c3.06,0,4.936-1.983,5.623-5.943v-1.503
	C225.097,72.799,223.617,66.49,220.657,60.677z"/>
<path fill="#231F20" d="M113.157,32.109v2.218C113.157,33.577,113.176,32.829,113.157,32.109z"/>
<path fill="#152C46" d="M355.604,108.504V73.781c0-4.44-1.16-9.086-3.487-13.946c-0.495-1.02-1.257-1.987-1.912-2.91
	c-3.154-4.447-7.136-8.353-11.969-10.939c-4.74-2.536-10.021-3.601-15.369-3.579c-3.163,0.013-6.356,0.582-9.349,1.604
	c-3.159,1.08-5.89,2.739-8.649,4.577c-2.008,1.338-3.681,2.818-5.06,4.424c-0.906,0.927-1.796,1.916-2.671,2.964
	c-0.874-1.049-1.764-2.037-2.67-2.964c-1.379-1.606-3.053-3.086-5.06-4.424c-0.848-0.565-1.663-1.168-2.535-1.698
	c-2.775-1.688-5.799-2.959-8.965-3.696c-3.37-0.785-6.634-0.958-10.078-0.655c-5.161,0.455-10.146,2.145-14.445,5.05
	c-2.216,1.497-4.229,3.281-6.033,5.253c-0.964,1.054-1.869,2.161-2.719,3.308c-0.853,1.152-1.852,2.387-2.472,3.684
	c-2.327,4.86-3.487,9.506-3.487,13.946c0,2.139,0.075,4.279,0.016,6.418c-0.083,3.021-0.258,8.252-0.322,11.274
	c-0.057,2.673-0.016,5.183-0.681,7.818c-0.488,1.936-1.277,3.792-2.368,5.465c-2.806,4.304-7.36,7.045-12.106,8.757
	c-3.517,1.269-42.459,0.502-45.485-0.765c-2.694-1.128-5.277-2.681-7.401-4.698c-3.967-3.768-5.784-8.933-5.784-14.342
	c0,0,0-5.678-0.028-5.72V66.542c0-4.112-6.587-6.239-9.349-3.495c-1.251,1.243-1.98,3.505-1.98,5.242c0,2.168,0,4.337,0,6.505
	c0,4.146,0,8.292,0,12.438c0,3.456-0.144,6.942,0.268,10.367c0.417,3.455,1.469,6.808,2.91,9.967c0.108,0.237,0.202,0.5,0.337,0.722
	c7.08,11.619,16.692,17.432,28.837,17.432c0,0,34.812-0.132,34.812-0.185c10.725-0.901,19.354-6.612,25.834-17.248
	c2.327-4.86,3.486-9.506,3.486-13.946c0-5.916,0.332-14.018,0.332-19.927c0-4.785,1.394-9.482,4.594-13.111
	c3.583-4.062,9.074-6.969,14.479-7.294c5.533-0.333,11.102,1.216,15.28,4.939c2.203,2.097,4.127,4.869,5.775,8.316
	c0.586,1.991,0.998,4.465,1.227,7.443v33.851h11.558V74.707c0.23-2.979,0.641-5.453,1.228-7.443
	c1.648-3.447,3.573-6.219,5.775-8.316c4.657-4.434,11.902-5.813,18.07-4.674c2.614,0.483,5.368,2.023,7.583,3.492
	c2.014,1.336,3.825,2.986,5.237,4.955c2.441,3.404,3.465,7.543,3.465,11.694v33.945c1.675-0.794,3.54-1.251,5.515-1.251
	C351.881,107.108,353.853,107.619,355.604,108.504z"/>
<g>
	<path fill="#152C46" d="M193.917,14.443c-4.192-0.899-4.958-1.882-4.958-3.492v-0.054c0-1.692,1.576-2.875,3.835-2.875
		c1.945,0,3.63,0.634,5.3,1.996l0.111,0.091l1.393-1.849l-0.104-0.084c-2.029-1.628-4.017-2.323-6.646-2.323
		c-3.634,0-6.273,2.2-6.273,5.23v0.054c0,2.977,1.788,4.525,6.376,5.523c3.988,0.84,4.744,1.847,4.744,3.411v0.053
		c0,1.788-1.654,3.037-4.021,3.037c-2.435,0-4.261-0.755-6.308-2.606l-0.107-0.095l-1.485,1.759l0.101,0.089
		c2.308,2.062,4.761,3.021,7.718,3.021c3.835,0,6.514-2.228,6.514-5.418v-0.053C200.107,17.008,198.255,15.388,193.917,14.443z"/>
	<path fill="#152C46" d="M213.079,5.985l-8.632,19.078h2.466l2.213-4.934h9.98l2.151,4.852l0.037,0.082h2.571l-8.632-19.078H213.079
		z M218.157,17.933h-8.081l4.055-9.018L218.157,17.933z"/>
	<polygon fill="#152C46" points="243.328,20.819 231.815,6.171 231.774,6.119 229.594,6.119 229.594,25.063 231.925,25.063 
		231.925,10.017 243.732,25.011 243.773,25.063 245.659,25.063 245.659,6.119 243.328,6.119 	"/>
	<path fill="#152C46" d="M270.083,6.119h-6.619v18.944h6.619c5.829,0,10.061-3.983,10.061-9.472v-0.054
		C280.145,10.08,275.913,6.119,270.083,6.119z M277.679,15.591v0.053c0,4.236-3.123,7.196-7.596,7.196h-4.234V8.342h4.234
		C274.556,8.342,277.679,11.323,277.679,15.591z"/>
	<rect x="286.908" y="6.119" fill="#152C46" width="2.384" height="18.944"/>
	<polygon fill="#152C46" points="299.266,16.609 309.455,16.609 309.455,14.413 299.266,14.413 299.266,8.315 310.654,8.315 
		310.654,6.119 296.882,6.119 296.882,25.063 310.788,25.063 310.788,22.868 299.266,22.868 	"/>
	<path fill="#152C46" d="M325.605,16.983h5.681v4.435c-1.412,1.125-3.367,1.796-5.249,1.796c-4.335,0-7.248-3.063-7.248-7.623
		v-0.054c0-4.214,3.055-7.516,6.954-7.516c2.795,0,4.338,1.009,5.59,2.1l0.106,0.092l1.542-1.812l-0.107-0.09
		c-2.117-1.784-4.16-2.512-7.05-2.512c-5.326,0-9.5,4.301-9.5,9.792v0.053c0,5.734,3.962,9.738,9.634,9.738
		c3.783,0,6.376-1.81,7.585-2.888l0.047-0.042v-7.641h-7.986V16.983z"/>
	<path fill="#152C46" d="M349.321,5.799c-5.431,0-9.688,4.301-9.688,9.792v0.053c0,5.552,4.142,9.738,9.634,9.738
		c5.432,0,9.686-4.301,9.686-9.792v-0.054C358.953,9.986,354.812,5.799,349.321,5.799z M356.488,15.591v0.053
		c0,4.285-3.081,7.517-7.167,7.517c-4.05,0-7.223-3.325-7.223-7.57v-0.054c0-4.284,3.083-7.516,7.169-7.516
		C353.316,8.022,356.488,11.347,356.488,15.591z"/>
</g>
<g>
	<polygon fill="#152C46" points="189.545,157.311 199.092,157.311 199.092,155.236 189.545,155.236 189.545,149.539 
		200.217,149.539 200.217,147.463 187.293,147.463 187.293,165.234 200.342,165.234 200.342,163.159 189.545,163.159 	"/>
	<path fill="#152C46" d="M220.027,160.948c-1.562,1.492-3.105,2.486-5.552,2.486c-3.721,0-6.636-3.113-6.636-7.085v-0.05
		c0-4.01,2.852-7.034,6.636-7.034c2.587,0,4.245,1.262,5.4,2.361l0.103,0.097l1.54-1.652l-0.101-0.095
		c-1.549-1.46-3.46-2.812-6.917-2.812c-5.038,0-8.986,4.034-8.986,9.185v0.05c0,5.208,3.831,9.135,8.912,9.135
		c3.542,0,5.576-1.575,7.097-3.114l0.098-0.099l-1.496-1.465L220.027,160.948z"/>
	<path fill="#152C46" d="M234.795,147.164c-5.094,0-9.085,4.034-9.085,9.185v0.05c0,5.208,3.886,9.135,9.036,9.135
		c5.095,0,9.085-4.034,9.085-9.185v-0.05C243.831,151.09,239.946,147.164,234.795,147.164z M234.795,163.434
		c-3.791,0-6.759-3.113-6.759-7.085v-0.05c0-4.01,2.884-7.034,6.71-7.034c3.79,0,6.757,3.112,6.757,7.084v0.05
		C241.503,160.409,238.62,163.434,234.795,163.434z"/>
	<path fill="#152C46" d="M256.294,155.264c-3.922-0.84-4.64-1.758-4.64-3.263v-0.05c0-1.582,1.474-2.686,3.587-2.686
		c1.821,0,3.397,0.594,4.961,1.869l0.111,0.091l1.315-1.746l-0.104-0.084c-1.902-1.529-3.768-2.181-6.234-2.181
		c-3.412,0-5.887,2.066-5.887,4.912v0.05c0,2.794,1.678,4.248,5.983,5.185c3.73,0.786,4.438,1.727,4.438,3.188v0.049
		c0,1.67-1.545,2.837-3.759,2.837c-2.279,0-3.991-0.707-5.906-2.439l-0.106-0.096l-1.402,1.662l0.101,0.089
		c2.165,1.935,4.465,2.834,7.239,2.834c3.599,0,6.112-2.091,6.112-5.087v-0.049C262.104,157.671,260.366,156.151,256.294,155.264z"
		/>
	<polygon fill="#152C46" points="273.986,156.102 268.162,147.463 265.425,147.463 272.823,158.216 272.823,165.234 275.1,165.234 
		275.1,158.191 282.498,147.463 279.862,147.463 	"/>
	<path fill="#152C46" d="M293.06,155.264c-3.922-0.84-4.639-1.759-4.639-3.263v-0.05c0-1.582,1.474-2.686,3.585-2.686
		c1.821,0,3.397,0.594,4.962,1.869l0.111,0.091l1.316-1.746l-0.104-0.084c-1.902-1.529-3.768-2.181-6.234-2.181
		c-3.41,0-5.886,2.066-5.886,4.912v0.05c0,2.795,1.677,4.249,5.982,5.185c3.731,0.786,4.438,1.727,4.438,3.188v0.049
		c0,1.67-1.545,2.837-3.759,2.837c-2.279,0-3.991-0.707-5.907-2.439l-0.107-0.095l-1.402,1.661l0.101,0.089
		c2.165,1.935,4.465,2.834,7.239,2.834c3.599,0,6.112-2.091,6.112-5.087v-0.049C298.869,157.671,297.132,156.151,293.06,155.264z"/>
	<polygon fill="#152C46" points="303.241,149.563 309.114,149.563 309.114,165.234 311.392,165.234 311.392,149.563 
		317.265,149.563 317.265,147.463 303.241,147.463 	"/>
	<polygon fill="#152C46" points="325.187,157.311 334.736,157.311 334.736,155.236 325.187,155.236 325.187,149.539 
		335.859,149.539 335.859,147.463 322.936,147.463 322.936,165.234 335.984,165.234 335.984,163.159 325.187,163.159 	"/>
	<polygon fill="#152C46" points="356.741,147.463 350.442,156.899 344.184,147.524 344.144,147.463 341.931,147.463 
		341.931,165.234 344.133,165.234 344.133,151.398 350.293,160.435 350.542,160.435 356.702,151.375 356.702,165.234 
		358.953,165.234 358.953,147.463 	"/>
</g>
<path fill="#C13471" d="M349.789,109.874c-5.607,0-10.17,4.562-10.17,10.17s4.562,10.17,10.17,10.17
	c5.607,0,10.169-4.562,10.169-10.17S355.396,109.874,349.789,109.874z"/>
<polygon fill="#DF8D24" points="304.427,111.324 292.011,111.324 288.625,111.324 288.625,128.76 306.062,128.76 306.062,111.324 
	"/>
<polygon fill="#4AB750" points="192.982,89.093 192.104,78.254 191.627,72.366 172.59,85.515 193.495,95.428 "/>
<polygon fill="#1FB3D2" points="10.2,90.67 2.804,99.854 7.061,110.853 18.712,112.664 26.109,103.479 21.851,92.482 "/>
</svg>
